Simulation
nRows=37
nColumns=15
endheader
time  TH_x TH_y TH_z SC_y  SC_z  SC_x  AC_y  AC_z  AC_x  GH_y  GH_z  GH_yy  EL_x  PS_y
1.95  0.000000  0.000000  0.000000  -32.5499772687895  7.9611638968379985  17.775205603070354  64.5767802879227  14.139695865435131  5.447469472766919  46.37157227083236  59.805009632317386  -39.60202848621404  22.294222388694024  0.000000
1.989  0.000000  0.000000  0.000000  -32.40255320489887  7.6454089079688545  17.275696148471447  64.78108053738153  13.617645255262518  4.998205379851528  46.28321993790876  58.67849670724745  -38.708876502726284  22.49849428280704  0.000000
2.028  0.000000  0.000000  0.000000  -32.19193689708164  7.32002630070415  16.64967880510665  64.89028748880811  13.129325823751778  4.562746070829733  46.207382917437045  57.39592569269879  -37.72456724759927  22.712751677062773  0.000000
2.067  0.000000  0.000000  0.000000  -31.911906698533848  7.0014101737846035  15.851814525844132  64.8663631016376  12.75362760254788  4.175087541962055  46.139558174046265  55.98374152266339  -36.67994501853985  22.93047645966793  0.000000
2.106  0.000000  0.000000  0.000000  -31.569873927039787  6.708312033487713  14.83551397384661  64.68194312181986  12.572072217605598  3.8692596801497086  46.07975116792762  54.4859775757486  -35.61456355093835  23.142427133923846  0.000000
2.145  0.000000  0.000000  0.000000  -31.16435086333231  6.4448795845015  13.574109362732294  64.31717330196953  12.640739369007777  3.6565914672829285  46.03947629069798  52.94391095585889  -34.55436470580613  23.345571645896943  0.000000
2.184  0.000000  0.000000  0.000000  -30.697110356493827  6.185692973187653  12.060737351750706  63.79216964838635  12.981282540393897  3.528487616420831  46.018672860577546  51.374037161565944  -33.516911971401  23.533790067672538  0.000000
2.223  0.000000  0.000000  0.000000  -30.198481242437445  5.90537934434832  10.325179475190536  63.16933817913788  13.566346696311102  3.486992184271549  46.007568735088704  49.74466987370917  -32.49310157816564  23.69270061241715  0.000000
2.262  0.000000  0.000000  0.000000  -29.71214805117338  5.56250955883846  8.433774439826614  62.53239525637965  14.309611626043399  3.507024527068112  45.98048521857815  48.012794278319674  -31.44542382911191  23.810813258269796  0.000000
2.301  0.000000  0.000000  0.000000  -29.272531523113265  5.08807616331392  6.416847814492655  61.94615007227488  15.153861647993716  3.544143183351898  45.898030353586215  46.14528149789619  -30.320695126790596  23.89316923036409  0.000000
2.34  0.000000  0.000000  0.000000  -28.8819394457995  4.450928933411368  4.248721847773048  61.42415163196291  16.13151091312413  3.5885044770543533  45.72463861896832  44.10848608438339  -29.081456270311968  23.95028857525319  0.000000
2.379  0.000000  0.000000  0.000000  -28.53905023693322  3.6616935021980246  2.0180123067427425  60.95537804754743  17.206490830680615  3.6139286594971156  45.446414533526905  41.89695926246249  -27.71305417759211  24.00714600512834  0.000000
2.418  0.000000  0.000000  0.000000  -28.224837712310563  2.779776030346855  0.006553961830172728  60.531425854048706  18.145922320899025  3.5094990786369427  45.054790451899414  39.58319275800311  -26.214212032353714  24.10133309223876  0.000000
2.457  0.000000  0.000000  0.000000  -27.903710150393852  1.9191209376531506  -1.5008829898977685  60.11605530152031  18.650939653289704  3.1913279569101656  44.54339133706009  37.288515303314  -24.57824511642509  24.26573526100469  0.000000
2.496  0.000000  0.000000  0.000000  -27.570400080642894  1.1803512327338166  -2.4853431199158043  59.657133910739375  18.65198050756944  2.7020937575262174  43.906892122314325  35.11231377859491  -22.79196212438869  24.515524929832026  0.000000
2.535  0.000000  0.000000  0.000000  -27.258253182597105  0.5990257206897918  -3.1095440220329484  59.11718714894044  18.272674125729644  2.132490304110289  43.14724193275866  33.08721557061858  -20.862824037520383  24.86034988954996  0.000000
2.574  0.000000  0.000000  0.000000  -26.97765802981761  0.14605029971078481  -3.517661275558658  58.478819257655566  17.660749993393576  1.5213786019405933  42.29485246386453  31.18531890347901  -18.817327551848383  25.272808837680284  0.000000
2.613  0.000000  0.000000  0.000000  -26.70404330867756  -0.2172129462497894  -3.8085422775099347  57.7092111020026  16.92670620044813  0.8823571625212109  41.40195924599421  29.357748492445637  -16.703304172191004  25.721933134294073  0.000000
2.652  0.000000  0.000000  0.000000  -26.43386628479727  -0.5038477978828998  -4.029635492208604  56.80749770338843  16.124162520766458  0.20533237578859173  40.54018354952354  27.58153621583057  -14.579717961592257  26.174892179234554  0.000000
2.691  0.000000  0.000000  0.000000  -26.138990260319957  -0.7287740245842912  -4.2023837442380545  55.7385340301765  15.265953929409317  -0.5260784680105421  39.768817806544824  25.87550953255479  -12.512842299500688  26.59724217424727  0.000000
2.73  0.000000  0.000000  0.000000  -25.810137395011047  -0.9223471343577941  -4.2853450689891215  54.485558714695976  14.322435636193717  -1.3714885016736265  39.13941795328544  24.28861167637819  -10.539758074572601  26.969995174114043  0.000000
2.769  0.000000  0.000000  0.000000  -25.40377353828604  -1.1010667897231394  -4.213315425861031  53.07522040112874  13.227904326155778  -2.4332821085168987  38.657217855340505  22.85954950883173  -8.687906499816794  27.313874938507798  0.000000
2.808  0.000000  0.000000  0.000000  -25.094298329867044  -1.224029159000633  -3.893485964000134  51.739645467991174  11.930568342035425  -3.609834906579957  38.161129189978105  21.450819591493467  -6.861593100626018  27.570848170344522  0.000000
2.847  0.000000  0.000000  0.000000  -25.03037318054428  -1.2919355449502101  -3.288832233548364  50.84026644263335  10.526137772700077  -4.777496448390852  37.3306744389325  19.830271493017655  -4.978430016538331  27.63929349987825  0.000000
2.886  0.000000  0.000000  0.000000  -25.213504660043288  -1.2593740830758031  -2.3859229541705576  50.4427746825605  9.071957263409915  -5.835039527940519  36.07889927154078  17.897963052348715  -3.029820838014612  27.550596716318598  0.000000
2.925  0.000000  0.000000  0.000000  -25.662285592420986  -1.057358520363409  -1.3658518859452293  50.3651183745215  7.715026754436622  -6.548078166197166  34.57122431574101  15.668332336357699  -1.008001877640208  27.394948562109363  0.000000
2.964  0.000000  0.000000  0.000000  -26.132726448389356  -0.83982078066143  -0.48482502592532467  50.356307707360784  6.654300824612247  -7.026300561226241  33.01645988106883  13.327730063543541  0.9400690266280942  27.20535077617823  0.000000
3.003  0.000000  0.000000  0.000000  -26.534059616777302  -0.7279821113689203  0.23699837218646574  50.345738612925025  5.840306893264286  -7.51312479229917  31.57610387121512  11.11829142192845  2.6614803059940746  27.004975656173155  0.000000
3.042  0.000000  0.000000  0.000000  -26.92430347657064  -0.6683556180378762  0.84609061781403  50.349855399669764  5.165900422738609  -7.969566221704132  30.280010504809702  9.088332519775186  4.108096618257078  26.787833883790896  0.000000
3.081  0.000000  0.000000  0.000000  -27.2872391808952  -0.6313568815909335  1.383629422501783  50.35434882615663  4.579301588821865  -8.3623242845624  29.11949166586124  7.247814523975806  5.3152406210895355  26.56398510715824  0.000000
3.12  0.000000  0.000000  0.000000  -27.615043516848505  -0.602026993909929  1.8725219038565375  50.374681451247014  4.04810236764228  -8.683516799208336  28.05345816206104  5.616321140840837  6.31291081165321  26.37188881616972  0.000000
3.159  0.000000  0.000000  0.000000  -27.899744295211317  -0.55499758789623  2.3382348550921828  50.39572082374482  3.5361667009046487  -8.910078466711877  27.02680622406703  4.183645500919071  7.134432454142023  26.194001095880413  0.000000
3.198  0.000000  0.000000  0.000000  -28.155503823686523  -0.49226761872277  2.8003922581076663  50.433076182141114  3.0397516583478668  -9.071412273212704  25.994717927539106  2.947292460126826  7.791936594720477  26.010996461461144  0.000000
3.237  0.000000  0.000000  0.000000  -28.406125339897276  -0.4331514541026499  3.240483557207409  50.48722117898189  2.6358448474253255  -9.200078494870805  24.956703686601564  1.87300118636099  8.300767539470835  25.818207245321943  0.000000
3.276  0.000000  0.000000  0.000000  -28.630780690420934  -0.40205092622081706  3.607204677453432  50.562434481094556  2.404221327101076  -9.307428538416593  23.916561529455098  0.9270238841131082  8.659314261254197  25.687893092374924  0.000000
3.315  0.000000  0.000000  0.000000  -28.78581735378632  -0.4018928794438294  3.9167562968395004  50.66858665156096  2.279825792848375  -9.393994787911915  22.850610289785283  0.12040167886169033  8.85746403383331  25.657999960252706  0.000000
3.354  0.000000  0.000000  0.000000  -28.88494723728951  -0.425516336179223  4.193336585886859  50.8007139913978  2.173468991835657  -9.447905452226895  21.726738889237158  -0.5124495667677906  8.888250810218121  25.70655630704586  0.000000
